<?xml version="1.0"?>
<svg xmlns="http://www.w3.org/2000/svg" viewBox="0 0 50 50">
    <path style="text-indent:0;text-align:start;line-height:normal;text-transform:none;block-progression:tb;-inkscape-font-specification:Sans" d="M 24.8125 2 A 1.0001 1.0001 0 0 0 24.5 2.125 L 16.5 6.5625 A 1.0001 1.0001 0 0 0 16.40625 6.625 A 1.0001 1.0001 0 0 0 16.375 6.65625 A 1.0001 1.0001 0 0 0 16.34375 6.6875 A 1.0001 1.0001 0 0 0 16.28125 6.75 A 1.0001 1.0001 0 0 0 16.15625 6.90625 A 1.0001 1.0001 0 0 0 16.125 6.96875 A 1.0001 1.0001 0 0 0 16.09375 7.03125 A 1.0001 1.0001 0 0 0 16.0625 7.0625 A 1.0001 1.0001 0 0 0 16.0625 7.09375 A 1.0001 1.0001 0 0 0 16.03125 7.15625 A 1.0001 1.0001 0 0 0 16.03125 7.1875 A 1.0001 1.0001 0 0 0 16.03125 7.25 A 1.0001 1.0001 0 0 0 16 7.375 A 1.0001 1.0001 0 0 0 16 7.5625 L 16 10.84375 L 6.5 16.125 A 1.0001 1.0001 0 0 0 6 17 L 6 25.625 L 2.625 27.5 L 2.5 27.5625 A 1.0001 1.0001 0 0 0 2.40625 27.625 A 1.0001 1.0001 0 0 0 2.375 27.65625 A 1.0001 1.0001 0 0 0 2.34375 27.6875 A 1.0001 1.0001 0 0 0 2.28125 27.75 A 1.0001 1.0001 0 0 0 2.21875 27.8125 A 1.0001 1.0001 0 0 0 2.15625 27.90625 A 1.0001 1.0001 0 0 0 2.125 27.96875 A 1.0001 1.0001 0 0 0 2.09375 28.03125 A 1.0001 1.0001 0 0 0 2.0625 28.0625 A 1.0001 1.0001 0 0 0 2.0625 28.09375 A 1.0001 1.0001 0 0 0 2.03125 28.15625 A 1.0001 1.0001 0 0 0 2.03125 28.1875 A 1.0001 1.0001 0 0 0 2.03125 28.25 A 1.0001 1.0001 0 0 0 2 28.375 A 1.0001 1.0001 0 0 0 2 28.5625 L 2 37.34375 A 1.0001 1.0001 0 0 0 2.5 38.21875 L 10.4375 42.625 L 10.5 42.65625 A 1.0001 1.0001 0 0 0 10.53125 42.6875 A 1.0001 1.0001 0 0 0 10.59375 42.6875 A 1.0001 1.0001 0 0 0 10.625 42.71875 A 1.0001 1.0001 0 0 0 10.6875 42.75 A 1.0001 1.0001 0 0 0 10.71875 42.75 A 1.0001 1.0001 0 0 0 10.78125 42.75 A 1.0001 1.0001 0 0 0 10.8125 42.78125 A 1.0001 1.0001 0 0 0 10.875 42.78125 A 1.0001 1.0001 0 0 0 10.90625 42.78125 A 1.0001 1.0001 0 0 0 10.96875 42.78125 A 1.0001 1.0001 0 0 0 11 42.78125 A 1.0001 1.0001 0 0 0 11.0625 42.78125 A 1.0001 1.0001 0 0 0 11.125 42.78125 A 1.0001 1.0001 0 0 0 11.375 42.71875 A 1.0001 1.0001 0 0 0 11.40625 42.71875 A 1.0001 1.0001 0 0 0 11.4375 42.6875 A 1.0001 1.0001 0 0 0 11.5 42.65625 L 11.59375 42.59375 A 1.0001 1.0001 0 0 0 11.65625 42.5625 L 13.3125 41.65625 L 24.5 47.875 A 1.0001 1.0001 0 0 0 25.5 47.875 L 36.6875 41.65625 L 38.4375 42.625 A 1.0001 1.0001 0 0 0 38.53125 42.6875 A 1.0001 1.0001 0 0 0 38.59375 42.6875 A 1.0001 1.0001 0 0 0 38.625 42.71875 A 1.0001 1.0001 0 0 0 38.6875 42.75 A 1.0001 1.0001 0 0 0 38.71875 42.75 A 1.0001 1.0001 0 0 0 38.78125 42.75 A 1.0001 1.0001 0 0 0 38.8125 42.78125 A 1.0001 1.0001 0 0 0 38.875 42.78125 A 1.0001 1.0001 0 0 0 38.90625 42.78125 A 1.0001 1.0001 0 0 0 38.96875 42.78125 A 1.0001 1.0001 0 0 0 39 42.78125 A 1.0001 1.0001 0 0 0 39.0625 42.78125 A 1.0001 1.0001 0 0 0 39.125 42.78125 A 1.0001 1.0001 0 0 0 39.375 42.71875 A 1.0001 1.0001 0 0 0 39.40625 42.71875 A 1.0001 1.0001 0 0 0 39.4375 42.6875 A 1.0001 1.0001 0 0 0 39.5 42.65625 L 39.59375 42.59375 A 1.0001 1.0001 0 0 0 39.65625 42.5625 L 47.5 38.21875 A 1.0001 1.0001 0 0 0 48 37.34375 L 48 28.96875 A 1.0004882 1.0004882 0 0 0 47.09375 27.34375 L 44 25.625 L 44 17 A 1.0001 1.0001 0 0 0 43.5 16.125 L 34 10.84375 L 34 7.96875 A 1.0004882 1.0004882 0 0 0 33.09375 6.34375 L 25.5 2.125 A 1.0001 1.0001 0 0 0 24.90625 2 A 1.0001 1.0001 0 0 0 24.8125 2 z M 25 4.15625 L 30.9375 7.4375 L 25 10.65625 L 19.0625 7.4375 L 25 4.15625 z M 18 9.125 L 24 12.375 L 24 19.0625 L 18 15.75 L 18 11.71875 A 1.0001 1.0001 0 0 0 18 11.125 L 18 9.125 z M 32 9.125 L 32 11.125 A 1.0001 1.0001 0 0 0 32 11.6875 L 32 15.75 L 26 19.0625 L 26 12.375 L 32 9.125 z M 16 13.15625 L 16 16.34375 A 1.0001 1.0001 0 0 0 16.5 17.21875 L 24.5 21.65625 A 1.0001 1.0001 0 0 0 24.53125 21.6875 A 1.0001 1.0001 0 0 0 24.59375 21.6875 A 1.0001 1.0001 0 0 0 24.625 21.71875 A 1.0001 1.0001 0 0 0 24.6875 21.75 A 1.0001 1.0001 0 0 0 24.71875 21.75 A 1.0001 1.0001 0 0 0 24.78125 21.75 A 1.0001 1.0001 0 0 0 24.8125 21.78125 A 1.0001 1.0001 0 0 0 24.875 21.78125 A 1.0001 1.0001 0 0 0 24.90625 21.78125 A 1.0001 1.0001 0 0 0 24.96875 21.78125 A 1.0001 1.0001 0 0 0 25 21.78125 A 1.0001 1.0001 0 0 0 25.0625 21.78125 A 1.0001 1.0001 0 0 0 25.125 21.78125 A 1.0001 1.0001 0 0 0 25.375 21.71875 A 1.0001 1.0001 0 0 0 25.40625 21.71875 A 1.0001 1.0001 0 0 0 25.4375 21.6875 A 1.0001 1.0001 0 0 0 25.5 21.65625 L 25.59375 21.59375 A 1.0001 1.0001 0 0 0 25.65625 21.5625 L 33.5 17.21875 A 1.0001 1.0001 0 0 0 34 16.34375 L 34 13.15625 L 42 17.59375 L 42 24.5 L 39.5 23.125 A 1.0001 1.0001 0 0 0 38.90625 23 A 1.0001 1.0001 0 0 0 38.8125 23 A 1.0001 1.0001 0 0 0 38.5 23.125 L 30.5 27.5625 A 1.0001 1.0001 0 0 0 30.4375 27.59375 A 1.0001 1.0001 0 0 0 30.375 27.65625 A 1.0001 1.0001 0 0 0 30.34375 27.6875 A 1.0001 1.0001 0 0 0 30.28125 27.75 A 1.0001 1.0001 0 0 0 30.09375 28.03125 A 1.0001 1.0001 0 0 0 30.0625 28.0625 A 1.0001 1.0001 0 0 0 30.0625 28.09375 A 1.0001 1.0001 0 0 0 30.03125 28.15625 A 1.0001 1.0001 0 0 0 30 28.375 A 1.0001 1.0001 0 0 0 30 28.4375 L 30 37.34375 A 1.0001 1.0001 0 0 0 30.5 38.21875 L 34.625 40.5 L 25 45.84375 L 15.375 40.5 L 19.5 38.21875 A 1.0001 1.0001 0 0 0 20 37.34375 L 20 28.96875 A 1.0004882 1.0004882 0 0 0 19.09375 27.34375 L 11.5 23.125 A 1.0001 1.0001 0 0 0 10.90625 23 A 1.0001 1.0001 0 0 0 10.8125 23 A 1.0001 1.0001 0 0 0 10.5 23.125 L 8 24.5 L 8 17.59375 L 16 13.15625 z M 11 25.15625 L 16.9375 28.4375 L 11 31.65625 L 5.0625 28.4375 L 7.3125 27.1875 L 7.5 27.09375 A 1.0001 1.0001 0 0 0 7.5625 27.0625 L 7.59375 27.03125 A 1.0001 1.0001 0 0 0 7.65625 27 L 11 25.15625 z M 39 25.15625 L 42.4375 27.0625 A 1.0001 1.0001 0 0 0 42.625 27.15625 L 44.9375 28.4375 L 39 31.65625 L 33.0625 28.4375 L 39 25.15625 z M 4 30.125 L 10 33.375 L 10 40.0625 L 4 36.75 L 4 30.125 z M 18 30.125 L 18 36.75 L 12.9375 39.5625 L 12.90625 39.5625 A 1.0001 1.0001 0 0 0 12.84375 39.59375 A 1.0001 1.0001 0 0 0 12.65625 39.6875 A 1.0001 1.0001 0 0 0 12.59375 39.75 L 12 40.0625 L 12 33.375 L 18 30.125 z M 32 30.125 L 38 33.375 L 38 40.0625 L 37.3125 39.6875 A 1.0001221 1.0001221 0 0 0 37.28125 39.65625 L 37.21875 39.625 A 1.0001221 1.0001221 0 0 0 37.125 39.59375 L 32 36.75 L 32 30.125 z M 46 30.125 L 46 36.75 L 40 40.0625 L 40 33.375 L 46 30.125 z"/>
</svg>
