<?xml version="1.0" encoding="UTF-8"?>
<svg xmlns="http://www.w3.org/2000/svg" xmlns:xlink="http://www.w3.org/1999/xlink" width="292pt" height="50pt" viewBox="0 0 292 50" version="1.1">
<defs>
<linearGradient id="linear0" gradientUnits="userSpaceOnUse" x1="14517.4" y1="244.46" x2="14517.4" y2="3812.01" gradientTransform="matrix(0.012288,0,0,0.0123031,0.00245759,0)">
<stop offset="0" style="stop-color:rgb(93.72549%,50.588235%,10.196078%);stop-opacity:1;"/>
<stop offset="0.611765" style="stop-color:rgb(94.901961%,59.607843%,8.235294%);stop-opacity:1;"/>
<stop offset="1" style="stop-color:rgb(96.470588%,68.627451%,5.882353%);stop-opacity:1;"/>
</linearGradient>
<linearGradient id="linear1" gradientUnits="userSpaceOnUse" x1="3492.52" y1="0.41" x2="3492.52" y2="4054.38" gradientTransform="matrix(0.012288,0,0,0.0123031,0.00245759,0)">
<stop offset="0" style="stop-color:rgb(16.862745%,26.27451%,54.117647%);stop-opacity:1;"/>
<stop offset="0.490196" style="stop-color:rgb(37.254902%,43.137255%,73.333333%);stop-opacity:1;"/>
<stop offset="1" style="stop-color:rgb(57.647059%,60.392157%,92.941176%);stop-opacity:1;"/>
</linearGradient>
</defs>
<g id="surface1">
<path style=" stroke:none;fill-rule:nonzero;fill:url(#linear0);" d="M 255.371094 49.890625 C 263.589844 49.890625 267.660156 49.226562 270.609375 46.949219 C 275.167969 43.40625 277.011719 38.078125 278.804688 32.589844 L 286.851562 2.496094 C 286.890625 2.335938 286.914062 2.175781 286.914062 2.019531 C 286.914062 0.910156 286.015625 0.0117188 284.910156 0.0117188 C 246.425781 0.0117188 139.902344 0.0117188 101.414062 0.0117188 C 93.183594 0.0117188 89.128906 0.675781 86.179688 2.964844 C 81.617188 6.496094 79.777344 11.835938 77.980469 17.308594 L 69.921875 47.417969 C 69.882812 47.5625 69.871094 47.257812 69.871094 47.894531 C 69.871094 48.523438 70.769531 49.890625 71.863281 49.890625 C 110.359375 49.890625 216.886719 49.890625 255.371094 49.890625 Z M 255.371094 49.890625 "/>
<path style=" stroke:none;fill-rule:evenodd;fill:url(#linear1);" d="M 45.542969 49.878906 C 53.773438 49.878906 57.84375 49.226562 60.777344 46.9375 C 65.335938 43.394531 67.191406 38.066406 68.976562 32.578125 L 77.035156 2.484375 C 77.074219 2.324219 77.085938 2.164062 77.085938 2.003906 C 77.085938 0.898438 76.199219 0 75.09375 0 C 36.609375 0 78.78125 0 40.292969 0 C 32.0625 0 28.007812 0.664062 25.058594 2.953125 C 20.5 6.496094 18.65625 11.824219 16.863281 17.296875 L 8.800781 47.402344 C 8.800781 47.402344 8.75 47.515625 8.75 47.882812 C 8.75 48.511719 9.636719 49.878906 10.742188 49.878906 C 49.226562 49.878906 7.054688 49.878906 45.542969 49.878906 Z M 45.542969 49.878906 "/>
<path style=" stroke:none;fill-rule:evenodd;fill:rgb(99.607843%,99.607843%,99.607843%);fill-opacity:1;" d="M 41.597656 28.703125 C 37.960938 25.703125 36.730469 21.347656 38.425781 18.109375 C 39.027344 16.964844 39.347656 16.585938 38.90625 15.429688 C 38.550781 14.519531 34.753906 10.816406 33.84375 10.003906 C 31.175781 7.640625 28.609375 12.671875 28.007812 15.109375 C 27.578125 16.890625 27.527344 18.539062 28.152344 20.398438 C 29.320312 23.792969 32.871094 28.160156 35.710938 30.96875 C 39.324219 34.546875 42.039062 37.414062 46.339844 39.765625 C 48.441406 40.90625 49.867188 41.105469 51.722656 41.019531 C 53.972656 40.921875 58.589844 39.210938 59.09375 36.625 C 59.304688 35.542969 58.445312 34.902344 57.496094 33.933594 C 56.074219 32.492188 53.921875 29.6875 52.203125 29.613281 C 51.367188 29.578125 50.46875 30.390625 49.523438 30.695312 C 48.503906 31.015625 47.800781 31.003906 46.917969 30.992188 C 45.355469 30.96875 43.242188 30.054688 41.597656 28.703125 Z M 41.597656 28.703125 "/>
<path style=" stroke:none;fill-rule:nonzero;fill:rgb(99.607843%,99.607843%,99.607843%);fill-opacity:1;" d="M 136.203125 25.074219 L 136.203125 12.289062 C 136.203125 11.835938 136.25 11.480469 136.398438 11.195312 C 136.535156 10.925781 136.730469 10.765625 136.988281 10.703125 C 137.480469 10.59375 137.875 10.914062 138.191406 11.234375 L 141.449219 14.480469 C 142.125 15.167969 142.714844 15.734375 143.023438 16.535156 C 143.195312 16.992188 143.28125 17.445312 143.304688 17.890625 L 143.304688 23.535156 L 144.066406 22.648438 L 147.582031 18.578125 L 148.269531 17.777344 L 152.949219 12.328125 C 154.289062 10.777344 154.351562 10.667969 156.230469 10.667969 L 159.855469 10.667969 C 160.238281 10.667969 160.542969 10.714844 160.789062 10.851562 C 161.011719 11 161.160156 11.195312 161.207031 11.441406 C 161.304688 11.933594 161.035156 12.339844 160.753906 12.660156 L 157.964844 15.921875 C 157.804688 16.09375 157.65625 16.265625 157.523438 16.425781 L 155.691406 18.539062 L 151.414062 23.511719 C 150.332031 24.617188 149.644531 25.074219 148.316406 25.074219 C 149.644531 25.074219 150.332031 25.542969 151.414062 26.636719 L 155.691406 31.605469 L 157.523438 33.734375 C 157.65625 33.894531 157.804688 34.054688 157.964844 34.226562 L 160.753906 37.488281 C 161.035156 37.820312 161.304688 38.214844 161.207031 38.707031 C 161.160156 38.964844 161.011719 39.160156 160.789062 39.296875 C 160.542969 39.445312 160.238281 39.492188 159.855469 39.492188 L 156.230469 39.492188 C 154.351562 39.492188 154.289062 39.371094 152.949219 37.820312 L 148.269531 32.382812 L 147.582031 31.582031 L 144.066406 27.511719 L 143.304688 26.613281 L 143.304688 32.257812 C 143.28125 32.714844 143.195312 33.167969 143.023438 33.625 C 142.714844 34.410156 142.125 34.988281 141.449219 35.667969 L 138.203125 38.914062 C 137.875 39.246094 137.480469 39.554688 136.988281 39.445312 C 136.730469 39.394531 136.535156 39.222656 136.398438 38.953125 C 136.25 38.679688 136.203125 38.3125 136.203125 37.867188 Z M 136.203125 25.074219 "/>
<path style=" stroke:none;fill-rule:nonzero;fill:rgb(99.607843%,99.607843%,99.607843%);fill-opacity:1;" d="M 107.523438 22.085938 L 112.488281 17.113281 L 114.601562 14.996094 C 114.757812 14.824219 114.933594 14.652344 115.105469 14.480469 L 118.359375 11.234375 C 118.691406 10.914062 119.085938 10.59375 119.578125 10.703125 C 119.835938 10.765625 120.03125 10.925781 120.167969 11.195312 C 120.300781 11.480469 120.363281 11.835938 120.363281 12.289062 L 120.363281 37.867188 C 120.363281 38.3125 120.300781 38.679688 120.167969 38.953125 C 120.03125 39.222656 119.835938 39.394531 119.578125 39.445312 C 119.085938 39.554688 118.691406 39.246094 118.359375 38.914062 L 115.105469 35.667969 C 114.441406 34.988281 113.851562 34.410156 113.542969 33.625 C 113.371094 33.167969 113.285156 32.714844 113.261719 32.257812 L 113.261719 25.269531 L 112.460938 26.070312 L 108.382812 30.144531 L 105.960938 32.578125 L 103.539062 30.144531 L 99.472656 26.070312 L 98.664062 25.269531 L 98.664062 32.257812 C 98.636719 32.714844 98.550781 33.167969 98.378906 33.625 C 98.085938 34.410156 97.496094 34.988281 96.820312 35.667969 L 93.5625 38.914062 C 93.242188 39.246094 92.839844 39.554688 92.347656 39.445312 C 92.101562 39.394531 91.890625 39.222656 91.757812 38.953125 C 91.621094 38.679688 91.574219 38.3125 91.574219 37.867188 L 91.574219 12.289062 C 91.574219 11.835938 91.621094 11.480469 91.757812 11.195312 C 91.890625 10.925781 92.101562 10.765625 92.347656 10.703125 C 92.839844 10.59375 93.242188 10.914062 93.5625 11.234375 L 96.820312 14.480469 C 96.992188 14.652344 97.164062 14.824219 97.324219 14.996094 L 99.4375 17.113281 L 104.402344 22.085938 C 105.496094 23.339844 105.960938 24.140625 105.960938 25.6875 C 105.960938 24.140625 106.429688 23.339844 107.523438 22.085938 Z M 107.523438 22.085938 "/>
<path style=" stroke:none;fill-rule:evenodd;fill:rgb(99.607843%,99.607843%,99.607843%);fill-opacity:1;" d="M 173.375 16.867188 C 168.742188 16.867188 164.992188 20.621094 164.992188 25.257812 C 164.992188 29.898438 168.742188 33.660156 173.375 33.660156 C 178.019531 33.660156 181.765625 29.898438 181.765625 25.257812 C 181.765625 20.621094 178.019531 16.867188 173.375 16.867188 Z M 173.375 10.421875 C 181.558594 10.421875 188.191406 17.066406 188.191406 25.257812 C 188.191406 33.453125 181.558594 40.097656 173.375 40.097656 C 165.203125 40.097656 158.554688 33.453125 158.554688 25.257812 C 158.554688 17.066406 165.203125 10.421875 173.375 10.421875 Z M 173.375 10.421875 "/>
<path style=" stroke:none;fill-rule:nonzero;fill:rgb(35.294118%,40%,76.862745%);fill-opacity:1;" d="M 198.722656 17.003906 L 198.722656 23.277344 C 198.734375 23.695312 199.054688 24.039062 199.449219 24.089844 L 200 24.089844 C 201.796875 24.089844 203.148438 23.757812 204.09375 23.054688 C 205.039062 22.367188 205.507812 21.382812 205.507812 20.078125 C 205.507812 18.726562 205.039062 17.742188 204.117188 17.113281 C 203.183594 16.484375 201.710938 16.179688 199.695312 16.179688 C 199.65625 16.179688 199.621094 16.179688 199.570312 16.179688 C 199.117188 16.179688 198.734375 16.546875 198.722656 17.003906 Z M 191.597656 25.074219 L 191.597656 12.289062 C 191.597656 11.835938 191.644531 11.480469 191.78125 11.195312 C 191.929688 10.925781 192.113281 10.777344 192.359375 10.726562 C 192.492188 10.691406 192.640625 10.703125 192.761719 10.703125 C 192.800781 10.703125 192.847656 10.703125 192.898438 10.703125 L 198.710938 10.703125 L 198.710938 10.726562 L 199.277344 10.726562 C 201.625 10.726562 203.480469 10.886719 204.855469 11.234375 C 206.230469 11.578125 207.449219 12.144531 208.515625 12.957031 C 209.621094 13.753906 210.484375 14.765625 211.085938 15.96875 C 211.6875 17.175781 211.996094 18.453125 211.996094 19.808594 C 211.996094 22.808594 210.925781 25.183594 208.785156 26.945312 C 206.339844 28.960938 202.484375 29.527344 198.699219 29.652344 L 198.699219 32.257812 C 198.675781 32.714844 198.589844 33.167969 198.417969 33.625 C 198.109375 34.410156 197.519531 34.988281 196.84375 35.667969 L 193.585938 38.914062 C 193.265625 39.246094 192.875 39.554688 192.371094 39.445312 C 192.125 39.394531 191.929688 39.222656 191.78125 38.953125 C 191.644531 38.679688 191.597656 38.3125 191.597656 37.867188 Z M 191.597656 25.074219 "/>
<path style=" stroke:none;fill-rule:evenodd;fill:rgb(35.294118%,40%,76.862745%);fill-opacity:1;" d="M 222.84375 34.410156 L 224.28125 34.410156 C 225.660156 34.410156 226.738281 34.066406 227.527344 33.402344 C 228.3125 32.714844 228.707031 31.792969 228.707031 30.609375 C 228.707031 29.453125 228.324219 28.566406 227.550781 27.941406 C 226.789062 27.300781 225.695312 26.992188 224.28125 26.992188 L 222.105469 26.992188 C 221.726562 27.066406 221.429688 27.398438 221.417969 27.792969 C 221.417969 27.914062 221.417969 28.027344 221.417969 28.148438 L 221.417969 33.574219 C 221.445312 34.042969 221.8125 34.398438 222.277344 34.398438 C 222.464844 34.398438 222.660156 34.398438 222.84375 34.398438 Z M 222.121094 15.660156 C 221.726562 15.722656 221.429688 16.054688 221.417969 16.460938 C 221.417969 16.585938 221.417969 16.695312 221.417969 16.820312 L 221.417969 21.359375 C 221.445312 21.8125 221.8125 22.171875 222.277344 22.171875 C 222.769531 22.171875 223.214844 22.183594 223.703125 22.183594 C 225.054688 22.183594 226.113281 21.875 226.875 21.285156 C 227.636719 20.695312 228.019531 19.855469 228.019531 18.785156 C 228.019531 17.703125 227.660156 16.917969 226.9375 16.414062 C 226.210938 15.90625 225.082031 15.660156 223.542969 15.660156 Z M 215.152344 38.433594 L 215.152344 11.945312 C 215.175781 11.675781 215.226562 11.453125 215.324219 11.269531 C 215.460938 11 215.644531 10.851562 215.902344 10.789062 C 216.035156 10.765625 216.171875 10.765625 216.296875 10.765625 C 216.34375 10.765625 216.394531 10.765625 216.429688 10.765625 L 224.0625 10.765625 C 227.414062 10.765625 229.945312 11.378906 231.667969 12.609375 C 233.386719 13.839844 234.246094 15.660156 234.246094 18.074219 C 234.246094 19.550781 233.855469 20.804688 233.066406 21.824219 C 232.28125 22.859375 231.101562 23.660156 229.515625 24.226562 C 231.285156 24.632812 232.648438 25.441406 233.644531 26.683594 C 234.640625 27.929688 235.144531 29.441406 235.144531 31.226562 C 235.144531 34.007812 234.113281 36.097656 232.074219 37.511719 C 230.019531 38.925781 226.984375 39.628906 222.96875 39.628906 L 216.429688 39.628906 C 216.394531 39.628906 216.34375 39.628906 216.296875 39.628906 C 216.171875 39.628906 216.035156 39.628906 215.902344 39.605469 C 215.644531 39.542969 215.460938 39.394531 215.324219 39.125 C 215.226562 38.941406 215.175781 38.707031 215.152344 38.433594 Z M 215.152344 38.433594 "/>
<path style=" stroke:none;fill-rule:nonzero;fill:rgb(35.294118%,40%,76.862745%);fill-opacity:1;" d="M 249.019531 20.398438 L 250.457031 18.578125 L 251.09375 17.777344 L 255.40625 12.328125 C 256.636719 10.777344 256.699219 10.667969 258.429688 10.667969 L 261.761719 10.667969 C 262.117188 10.667969 262.410156 10.714844 262.632812 10.851562 C 262.839844 11 262.976562 11.195312 263.015625 11.441406 C 263.101562 11.933594 262.855469 12.339844 262.597656 12.660156 L 260.027344 15.921875 C 259.878906 16.09375 259.746094 16.265625 259.621094 16.425781 L 257.9375 18.539062 L 253.996094 23.511719 C 253 24.617188 252.371094 25.074219 251.144531 25.074219 C 252.371094 25.074219 253 25.542969 253.996094 26.636719 L 257.9375 31.605469 L 259.621094 33.734375 C 259.746094 33.894531 259.878906 34.054688 260.027344 34.226562 L 262.597656 37.488281 C 262.855469 37.820312 263.101562 38.214844 263.015625 38.707031 C 262.976562 38.964844 262.839844 39.160156 262.632812 39.296875 C 262.410156 39.445312 262.117188 39.492188 261.761719 39.492188 L 258.429688 39.492188 C 256.699219 39.492188 256.636719 39.371094 255.40625 37.820312 L 251.09375 32.382812 L 250.457031 31.582031 L 249.019531 29.761719 L 247.566406 31.582031 L 246.941406 32.382812 L 242.628906 37.820312 C 241.386719 39.371094 241.335938 39.492188 239.59375 39.492188 L 236.261719 39.492188 C 235.90625 39.492188 235.625 39.445312 235.402344 39.296875 C 235.195312 39.160156 235.058594 38.964844 235.007812 38.707031 C 234.921875 38.214844 235.167969 37.820312 235.425781 37.488281 L 238.007812 34.226562 C 238.144531 34.054688 238.277344 33.894531 238.414062 33.734375 L 240.097656 31.605469 L 244.042969 26.636719 C 244.976562 25.589844 245.601562 25.121094 246.707031 25.074219 C 245.601562 25.023438 244.976562 24.558594 244.042969 23.511719 L 240.097656 18.539062 L 238.414062 16.425781 C 238.277344 16.265625 238.144531 16.09375 238.007812 15.921875 L 235.425781 12.660156 C 235.167969 12.339844 234.921875 11.933594 235.007812 11.441406 C 235.058594 11.195312 235.195312 11 235.402344 10.851562 C 235.625 10.714844 235.90625 10.667969 236.261719 10.667969 L 239.59375 10.667969 C 241.335938 10.667969 241.386719 10.777344 242.628906 12.328125 L 246.941406 17.777344 L 247.566406 18.578125 Z M 249.019531 20.398438 "/>
<path style=" stroke:none;fill-rule:nonzero;fill:rgb(99.607843%,99.607843%,99.607843%);fill-opacity:1;" d="M 131.703125 24.839844 L 131.703125 11.675781 C 131.703125 11.234375 131.644531 10.863281 131.507812 10.59375 C 131.371094 10.324219 131.175781 10.164062 130.917969 10.101562 C 130.425781 9.988281 130.019531 10.296875 129.703125 10.628906 L 126.445312 13.878906 C 125.78125 14.554688 125.179688 15.132812 124.886719 15.921875 C 124.714844 16.375 124.625 16.832031 124.601562 17.285156 L 124.601562 26.660156 C 124.601562 26.5625 124.589844 26.476562 124.589844 26.378906 L 124.589844 38.003906 C 124.589844 38.449219 124.652344 38.804688 124.785156 39.085938 C 124.921875 39.359375 125.117188 39.519531 125.375 39.578125 C 125.867188 39.691406 126.261719 39.371094 126.59375 39.050781 L 129.847656 35.800781 C 130.511719 35.113281 131.101562 34.546875 131.410156 33.746094 C 131.582031 33.304688 131.667969 32.835938 131.691406 32.394531 L 131.691406 31.359375 L 131.703125 31.359375 Z M 131.703125 24.839844 "/>
</g>
</svg>
