<svg xmlns="http://www.w3.org/2000/svg" viewBox="0 0 23760 4054" shape-rendering="geometricPrecision"
     text-rendering="geometricPrecision" image-rendering="optimizeQuality" fill-rule="evenodd" clip-rule="evenodd">
    <defs>
        <style>
            .fil2,.fil3{fill:#fefefe}.fil3{fill-rule:nonzero}
        </style>
        <linearGradient id="id0" gradientUnits="userSpaceOnUse" x1="2772.85" y1="243.62" x2="2772.85" y2="3811.17">
            <stop offset="0" stop-color="#4a9c8a"/>
            <stop offset=".612" stop-color="#58afad"/>
            <stop offset="1" stop-color="#66c3d0"/>
        </linearGradient>
        <linearGradient id="id1" gradientUnits="userSpaceOnUse" x1="13816.5" y1="244.46" x2="13816.5" y2="3812.01">
            <stop offset="0" stop-color="#ef811a"/>
            <stop offset=".612" stop-color="#f29815"/>
            <stop offset="1" stop-color="#f6af0f"/>
        </linearGradient>
    </defs>
    <g id="Layer_x0020_1">
        <path d="M20121 4055c670 0 1000-54 1240-239 371-288 521-721 667-1167l656-2446c3-13 4-26 4-39 0-90-73-163-162-163H7512c-670 0-1000 54-1240 240-371 287-521 721-667 1166l-655 2447c-3 12-5-13-5 39 0 51 73 162 163 162h15013z"
              fill="url(#id1)" fill-rule="nonzero"/>
        <path d="M2987 4054c669 0 1000-53 1239-239 372-288 522-721 668-1167l655-2446c3-13 5-26 5-39 0-90-73-163-163-163H2559c-669 0-1000 54-1240 240-371 288-521 721-667 1166L-3 3853s-5 9-5 39c0 51 73 162 163 162h2832z"
              fill="url(#id0)"/>
        <path class="fil2"
              d="M2665 2333c-296-244-396-598-257-861 49-93 75-124 38-218-29-74-338-375-412-441-217-192-426 217-474 415-36 145-40 279 12 430 94 276 383 631 614 859 295 291 515 524 866 715 171 93 286 109 437 102 183-8 559-147 600-357 18-88-53-140-130-219-115-117-291-345-430-351-69-3-142 63-219 88-83 26-140 25-212 24-127-2-299-76-433-186zM9617 2859c97 34 191 51 284 51s168-21 225-62 85-94 85-158c0-92-101-197-302-312-33-18-58-33-76-43l-152-87c-149-84-259-179-330-285-72-106-108-226-108-360 0-183 69-332 206-448 137-117 314-175 531-175 81 0 168 7 261 28 63 15 309 49 312 272v207c2 110-82 88-120 69-66-34-129-65-191-89-98-37-181-56-249-56-76 0-136 17-180 49-43 33-65 78-65 133 0 40 13 77 39 111s65 65 117 93l265 147c222 123 371 236 448 340 76 104 115 227 115 370 0 221-75 399-226 535-150 135-349 203-598 203-84 0-176-9-275-27-347-62-335-129-345-347l-4-80c-12-343 119-155 333-79z"/>
        <path class="fil3"
              d="M11013 2135V1095c0-36 4-66 15-88 12-22 28-36 48-40 41-9 73 16 99 43l265 263c55 56 103 103 128 167 14 37 21 74 23 111v459l62-73 286-331 56-65 381-442c108-126 114-136 267-136h294c32 0 57 4 77 16 18 11 30 27 34 48 8 40-14 72-37 99l-227 265c-13 14-25 27-36 40l-149 172-348 405c-88 89-144 127-252 127 108 0 164 37 252 127l348 404 149 172c11 13 23 27 36 41l227 265c23 26 45 58 37 99-4 20-16 36-34 48-20 11-45 15-77 15h-294c-153 0-159-9-267-135l-381-443-56-65-286-331-62-72v458c-2 37-9 74-23 111-25 65-73 111-128 167l-265 264c-26 26-58 52-99 43-20-5-36-18-47-40-12-23-16-52-16-89V2135z"/>
        <path class="fil2"
              d="M14038 1467c-377 0-683 306-683 683s306 683 683 683 683-306 683-683-306-683-683-683zm0-523c666 0 1206 540 1206 1206s-540 1206-1206 1206-1206-540-1206-1206 540-1206 1206-1206z"/>
        <path class="fil3"
              d="M17831 2119V1049c0-36-4-66-15-88s-28-35-48-40c-40-9-73 16-99 43l-265 264c-54 55-103 102-127 166-14 37-21 74-23 111v762c-1-8-1-15-1-23v945c0 36 4 65 16 88 11 22 27 35 48 40 40 9 72-17 99-43l265-264c54-56 102-102 127-167 14-37 21-74 23-110v-614z"/>
        <path class="fil2"
              d="M8058 2564h16l138-2-50-118-29-69-104-247h-1l-47-110c-35-75-64-133-63-218 0 81-30 146-64 218l-147 346-89 205 440-5zM7918 983c5 0 11 1 17 3 34 8 54 34 69 62l6 12 1 2 11 23 1047 2117c4 13 6 26 3 41-3 18-14 33-30 43-15 9-34 13-57 14h-258c-162-1-217-65-277-200l-62-137h-941l-61 137c-61 135-116 199-278 200h-257c-23-1-42-5-57-14-17-10-27-25-31-43-2-15-1-28 4-41l1046-2117h1l11-23 1-2 6-12c14-28 34-54 68-62 6-2 12-3 18-3zM15101 3184l876-1368c32-42 59-89 96-127 88-88 175-154 318-154h-472v-1h-104c-37-2-73-9-109-22-64-25-109-72-164-126l-259-260c-26-26-52-58-43-97 5-21 18-36 40-47 22-12 51-16 86-16h1567c22 2 41 6 56 15 19 11 30 28 34 48 5 22 0 42-9 60l-996 1632h407c37 2 75 9 112 23 66 25 113 74 169 129l267 268c27 27 53 60 44 101-5 21-18 37-41 48-22 12-52 16-89 16h-1684c-32 0-57-4-76-15-19-12-31-28-35-48-4-22 0-42 9-59zM19234 2564h16l138-2-50-118-29-69-104-247h-1l-47-110c-35-75-64-133-63-218 0 81-30 146-64 218l-147 346-89 205 440-5zm-140-1581c5 0 11 1 17 3 34 8 54 34 69 62l6 12 1 2 11 23 1047 2117c4 13 6 26 3 41-3 18-14 33-30 43-15 9-34 13-57 14h-258c-162-1-217-65-277-200l-62-137h-941l-61 137c-61 135-116 199-278 200h-257c-23-1-42-5-57-14-17-10-27-25-31-43-2-15-1-28 4-41l1046-2117h1l11-23 1-2 6-12c14-28 34-54 68-62 6-2 12-3 18-3z"/>
    </g>
</svg>
