<?xml version="1.0" standalone="no"?>
<!DOCTYPE svg PUBLIC "-//W3C//DTD SVG 20010904//EN"
        "http://www.w3.org/TR/2001/REC-SVG-20010904/DTD/svg10.dtd">
<svg version="1.0" xmlns="http://www.w3.org/2000/svg"
     width="700.000000pt" height="700.000000pt" viewBox="0 0 700.000000 700.000000"
     preserveAspectRatio="xMidYMid meet">
    <metadata>
        Created by potrace 1.11, written by Peter Selinger 2001-2013
    </metadata>
    <g transform="translate(0.000000,700.000000) scale(0.100000,-0.100000)"
       fill="#000000" stroke="none">
        <path d="M2800 6043 c-128 -5 -347 -24 -450 -39 -372 -54 -593 -152 -813 -363
-153 -147 -262 -299 -382 -536 -184 -362 -265 -612 -604 -1870 -154 -572 -341
-1267 -416 -1545 -102 -379 -135 -515 -132 -544 7 -53 54 -124 106 -161 l43
-30 2036 0 c2110 0 2156 1 2447 41 389 54 619 158 846 384 253 252 415 552
619 1145 37 108 230 803 481 1730 358 1320 420 1558 416 1602 -5 71 -48 139
-106 170 l-44 23 -1991 -2 c-1095 -1 -2020 -3 -2056 -5z m-285 -972 c42 -19
371 -347 497 -494 121 -142 124 -176 35 -382 -37 -87 -59 -156 -68 -208 -70
-449 330 -979 817 -1082 95 -20 285 -19 355 1 29 9 99 39 154 67 119 60 155
63 235 22 106 -54 185 -127 465 -429 127 -138 145 -166 145 -232 0 -144 -147
-288 -402 -392 -196 -81 -364 -106 -535 -78 -131 21 -217 52 -373 134 -316
166 -497 309 -944 752 -348 344 -481 492 -622 691 -190 269 -306 522 -334 729
-31 230 54 516 220 741 114 153 243 212 355 160z"/>
    </g>
</svg>
